<svg id="visual" viewBox="0 0 1920 1080" width="1920" height="1080" xmlns="http://www.w3.org/2000/svg" xmlns:xlink="http://www.w3.org/1999/xlink" version="1.1"><g stroke-width="1" stroke-linejoin="bevel"><path d="M1083.7 517L1276 524L1256 394Z" fill="#d58544" stroke="#d58544"></path><path d="M1256 394L1026.7 321L1083.7 517Z" fill="#9b5739" stroke="#9b5739"></path><path d="M1083.7 517L1251 710L1276 524Z" fill="#d58544" stroke="#d58544"></path><path d="M1505.3 703L1464.3 512L1276 524Z" fill="#241110" stroke="#241110"></path><path d="M1276 524L1464.3 512L1256 394Z" fill="#c27541" stroke="#c27541"></path><path d="M1286 180L1027.7 218L1026.7 321Z" fill="#241110" stroke="#241110"></path><path d="M1286 180L1026.7 321L1256 394Z" fill="#5f3028" stroke="#5f3028"></path><path d="M824.3 703L1085.7 756L1083.7 517Z" fill="#9b5739" stroke="#9b5739"></path><path d="M1083.7 517L1085.7 756L1251 710Z" fill="#d58544" stroke="#d58544"></path><path d="M1507.3 390L1286 180L1256 394Z" fill="#874934" stroke="#874934"></path><path d="M850.3 183L886.3 376L1026.7 321Z" fill="#733c2e" stroke="#733c2e"></path><path d="M1026.7 321L886.3 376L1083.7 517Z" fill="#c27541" stroke="#c27541"></path><path d="M1464.3 512L1507.3 390L1256 394Z" fill="#733c2e" stroke="#733c2e"></path><path d="M886.3 376L831.3 502L1083.7 517Z" fill="#733c2e" stroke="#733c2e"></path><path d="M1085.7 756L1270 858L1251 710Z" fill="#af653d" stroke="#af653d"></path><path d="M1251 710L1505.3 703L1276 524Z" fill="#5f3028" stroke="#5f3028"></path><path d="M1270 858L1505.3 703L1251 710Z" fill="#241110" stroke="#241110"></path><path d="M1702.7 500L1675.7 342L1507.3 390Z" fill="#af653d" stroke="#af653d"></path><path d="M1675.7 342L1516.3 222L1507.3 390Z" fill="#c27541" stroke="#c27541"></path><path d="M1507.3 390L1516.3 222L1286 180Z" fill="#af653d" stroke="#af653d"></path><path d="M831.3 502L824.3 703L1083.7 517Z" fill="#9b5739" stroke="#9b5739"></path><path d="M1085.7 756L1055.7 933L1270 858Z" fill="#733c2e" stroke="#733c2e"></path><path d="M888.3 0L850.3 183L1027.7 218Z" fill="#af653d" stroke="#af653d"></path><path d="M1027.7 218L850.3 183L1026.7 321Z" fill="#371b19" stroke="#371b19"></path><path d="M886.3 376L681 366L831.3 502Z" fill="#c27541" stroke="#c27541"></path><path d="M1478.3 0L1246 0L1286 180Z" fill="#241110" stroke="#241110"></path><path d="M1286 180L1062.7 0L1027.7 218Z" fill="#371b19" stroke="#371b19"></path><path d="M889.3 928L1055.7 933L1085.7 756Z" fill="#d58544" stroke="#d58544"></path><path d="M1246 0L1062.7 0L1286 180Z" fill="#130000" stroke="#130000"></path><path d="M1702.7 500L1507.3 390L1464.3 512Z" fill="#c27541" stroke="#c27541"></path><path d="M1516.3 222L1478.3 0L1286 180Z" fill="#733c2e" stroke="#733c2e"></path><path d="M850.3 183L681 366L886.3 376Z" fill="#5f3028" stroke="#5f3028"></path><path d="M831.3 502L676 688L824.3 703Z" fill="#874934" stroke="#874934"></path><path d="M1270 858L1525.3 857L1505.3 703Z" fill="#241110" stroke="#241110"></path><path d="M1505.3 703L1702.7 500L1464.3 512Z" fill="#d58544" stroke="#d58544"></path><path d="M1281 1080L1525.3 857L1270 858Z" fill="#af653d" stroke="#af653d"></path><path d="M1740.7 715L1702.7 500L1505.3 703Z" fill="#4b2521" stroke="#4b2521"></path><path d="M824.3 703L889.3 928L1085.7 756Z" fill="#130000" stroke="#130000"></path><path d="M656 883L889.3 928L824.3 703Z" fill="#9b5739" stroke="#9b5739"></path><path d="M1743.7 0L1668.7 222L1920 223Z" fill="#874934" stroke="#874934"></path><path d="M1675.7 342L1668.7 222L1516.3 222Z" fill="#241110" stroke="#241110"></path><path d="M604 556L676 688L831.3 502Z" fill="#9b5739" stroke="#9b5739"></path><path d="M1062.7 0L888.3 0L1027.7 218Z" fill="#733c2e" stroke="#733c2e"></path><path d="M850.3 183L631 170L681 366Z" fill="#c27541" stroke="#c27541"></path><path d="M1668.7 222L1478.3 0L1516.3 222Z" fill="#5f3028" stroke="#5f3028"></path><path d="M681 366L604 556L831.3 502Z" fill="#d58544" stroke="#d58544"></path><path d="M1525.3 857L1740.7 715L1505.3 703Z" fill="#4b2521" stroke="#4b2521"></path><path d="M1920 223L1668.7 222L1675.7 342Z" fill="#874934" stroke="#874934"></path><path d="M1035.7 1080L1281 1080L1055.7 933Z" fill="#733c2e" stroke="#733c2e"></path><path d="M1055.7 933L1281 1080L1270 858Z" fill="#c27541" stroke="#c27541"></path><path d="M1525.3 857L1711.7 861L1740.7 715Z" fill="#5f3028" stroke="#5f3028"></path><path d="M889.3 928L1035.7 1080L1055.7 933Z" fill="#733c2e" stroke="#733c2e"></path><path d="M609 0L631 170L850.3 183Z" fill="#371b19" stroke="#371b19"></path><path d="M448.7 346L445.7 568L604 556Z" fill="#d58544" stroke="#d58544"></path><path d="M1521.3 1080L1711.7 861L1525.3 857Z" fill="#4b2521" stroke="#4b2521"></path><path d="M403.7 686L656 883L676 688Z" fill="#4b2521" stroke="#4b2521"></path><path d="M676 688L656 883L824.3 703Z" fill="#d58544" stroke="#d58544"></path><path d="M889.3 928L815.3 1080L1035.7 1080Z" fill="#5f3028" stroke="#5f3028"></path><path d="M1281 1080L1521.3 1080L1525.3 857Z" fill="#130000" stroke="#130000"></path><path d="M656 883L815.3 1080L889.3 928Z" fill="#4b2521" stroke="#4b2521"></path><path d="M1920 389L1675.7 342L1702.7 500Z" fill="#4b2521" stroke="#4b2521"></path><path d="M1668.7 222L1743.7 0L1478.3 0Z" fill="#241110" stroke="#241110"></path><path d="M888.3 0L609 0L850.3 183Z" fill="#5f3028" stroke="#5f3028"></path><path d="M448.7 346L604 556L681 366Z" fill="#733c2e" stroke="#733c2e"></path><path d="M604 556L403.7 686L676 688Z" fill="#241110" stroke="#241110"></path><path d="M448.7 346L681 366L460.7 221Z" fill="#5f3028" stroke="#5f3028"></path><path d="M1920 579L1702.7 500L1740.7 715Z" fill="#130000" stroke="#130000"></path><path d="M1920 579L1920 389L1702.7 500Z" fill="#371b19" stroke="#371b19"></path><path d="M460.7 221L681 366L631 170Z" fill="#af653d" stroke="#af653d"></path><path d="M1920 735L1920 579L1740.7 715Z" fill="#874934" stroke="#874934"></path><path d="M445.7 0L460.7 221L631 170Z" fill="#4b2521" stroke="#4b2521"></path><path d="M1920 389L1920 223L1675.7 342Z" fill="#d58544" stroke="#d58544"></path><path d="M1920 889L1920 735L1711.7 861Z" fill="#130000" stroke="#130000"></path><path d="M1711.7 861L1920 735L1740.7 715Z" fill="#130000" stroke="#130000"></path><path d="M656 883L674 1080L815.3 1080Z" fill="#5f3028" stroke="#5f3028"></path><path d="M407.7 907L674 1080L656 883Z" fill="#af653d" stroke="#af653d"></path><path d="M213.3 530L403.7 686L445.7 568Z" fill="#371b19" stroke="#371b19"></path><path d="M445.7 568L403.7 686L604 556Z" fill="#af653d" stroke="#af653d"></path><path d="M230.3 398L445.7 568L448.7 346Z" fill="#9b5739" stroke="#9b5739"></path><path d="M1521.3 1080L1733.7 1080L1711.7 861Z" fill="#4b2521" stroke="#4b2521"></path><path d="M1733.7 1080L1920 889L1711.7 861Z" fill="#af653d" stroke="#af653d"></path><path d="M609 0L445.7 0L631 170Z" fill="#130000" stroke="#130000"></path><path d="M207.3 164L230.3 398L448.7 346Z" fill="#733c2e" stroke="#733c2e"></path><path d="M1920 223L1920 0L1743.7 0Z" fill="#9b5739" stroke="#9b5739"></path><path d="M403.7 686L407.7 907L656 883Z" fill="#371b19" stroke="#371b19"></path><path d="M207.3 164L448.7 346L460.7 221Z" fill="#5f3028" stroke="#5f3028"></path><path d="M403.7 686L201.3 926L407.7 907Z" fill="#af653d" stroke="#af653d"></path><path d="M1733.7 1080L1920 1080L1920 889Z" fill="#9b5739" stroke="#9b5739"></path><path d="M230.3 398L213.3 530L445.7 568Z" fill="#371b19" stroke="#371b19"></path><path d="M247.3 1080L401.7 1080L407.7 907Z" fill="#733c2e" stroke="#733c2e"></path><path d="M407.7 907L401.7 1080L674 1080Z" fill="#874934" stroke="#874934"></path><path d="M445.7 0L207.3 164L460.7 221Z" fill="#c27541" stroke="#c27541"></path><path d="M230.3 398L0 386L213.3 530Z" fill="#d58544" stroke="#d58544"></path><path d="M0 572L176.3 685L213.3 530Z" fill="#874934" stroke="#874934"></path><path d="M213.3 530L176.3 685L403.7 686Z" fill="#130000" stroke="#130000"></path><path d="M445.7 0L244.3 0L207.3 164Z" fill="#130000" stroke="#130000"></path><path d="M176.3 685L201.3 926L403.7 686Z" fill="#241110" stroke="#241110"></path><path d="M201.3 926L247.3 1080L407.7 907Z" fill="#241110" stroke="#241110"></path><path d="M0 204L230.3 398L207.3 164Z" fill="#5f3028" stroke="#5f3028"></path><path d="M0 204L0 386L230.3 398Z" fill="#733c2e" stroke="#733c2e"></path><path d="M176.3 685L0 938L201.3 926Z" fill="#5f3028" stroke="#5f3028"></path><path d="M201.3 926L0 1080L247.3 1080Z" fill="#9b5739" stroke="#9b5739"></path><path d="M0 386L0 572L213.3 530Z" fill="#d58544" stroke="#d58544"></path><path d="M0 572L0 688L176.3 685Z" fill="#241110" stroke="#241110"></path><path d="M0 0L0 204L207.3 164Z" fill="#c27541" stroke="#c27541"></path><path d="M0 688L0 938L176.3 685Z" fill="#241110" stroke="#241110"></path><path d="M244.3 0L0 0L207.3 164Z" fill="#4b2521" stroke="#4b2521"></path><path d="M0 938L0 1080L201.3 926Z" fill="#c27541" stroke="#c27541"></path></g></svg>